<svg xmlns="http://www.w3.org/2000/svg" xmlns:xlink="http://www.w3.org/1999/xlink" width="500" zoomAndPan="magnify" viewBox="0 0 375 374.999991" height="500" preserveAspectRatio="xMidYMid meet" version="1.2"><defs><clipPath id="f159b92617"><path d="M 45.421875 48 L 329.578125 48 L 329.578125 240.667969 L 45.421875 240.667969 Z M 45.421875 48 "/></clipPath></defs><g id="b32378c60d"><g style="fill:#ffffff;fill-opacity:1;"><g transform="translate(38.94146, 302.310109)"><path style="stroke:none" d="M 5.625 0.15625 L 4.546875 -0.546875 L 3.953125 -1.671875 L 4 -13.640625 L 3.90625 -14.671875 L 4.0625 -20.140625 L 3.953125 -21.234375 L 4 -29.890625 L 3.90625 -30.875 L 4.0625 -32.984375 L 3.90625 -36.28125 L 4.5 -37.421875 L 5.6875 -37.96875 L 7.203125 -37.53125 L 8.453125 -36.609375 L 9.859375 -35.140625 L 10.71875 -34.390625 L 12.125 -32.703125 L 12.890625 -32.0625 L 17.8125 -26.59375 L 19.015625 -25.5 L 19.984375 -24.265625 L 20.734375 -23.5 L 21.390625 -22.578125 L 22.53125 -22.15625 L 23.5 -22.796875 L 26.8125 -26.15625 L 27.515625 -27.078125 L 32.28125 -31.953125 L 33.03125 -32.921875 L 33.6875 -33.515625 L 34.390625 -34.390625 L 36.65625 -36.765625 L 37.796875 -37.46875 L 39.375 -37.96875 L 40.515625 -37.375 L 41.15625 -36.234375 L 41.046875 -35.203125 L 41.109375 -32.984375 L 41.046875 -32.0625 L 41.15625 -29.734375 L 41.109375 -28.703125 L 41.15625 -23.34375 L 41.046875 -22.15625 L 41.15625 -5.90625 L 41.046875 -4.8125 L 41.21875 -2 L 40.5625 -0.4375 L 39.421875 0.15625 L 32.875 -0.046875 L 31.734375 -0.375 L 31.296875 -1.625 L 31.296875 -2.4375 L 31.1875 -4.875 L 31.296875 -5.84375 L 31.1875 -7.859375 L 31.296875 -9.96875 L 31.140625 -12.125 L 31.25 -15.109375 L 30.8125 -15.921875 L 30.109375 -15.59375 L 27.890625 -13.328125 L 27.125 -12.78125 L 25.609375 -11 L 24.96875 -10.34375 L 24.203125 -9.53125 L 23.125 -8.71875 L 21.9375 -8.765625 L 20.796875 -9.578125 L 19.328125 -11 L 18.625 -11.859375 L 16.40625 -14.078125 L 15.765625 -14.890625 L 14.890625 -15.59375 L 14.34375 -15.8125 L 13.859375 -15.328125 L 13.859375 -13.21875 L 13.96875 -12.015625 L 13.859375 -10.078125 L 13.921875 -8.9375 L 13.75 -7.25 L 13.921875 -1.578125 L 13.265625 -0.59375 L 11.75 0.046875 L 10.015625 -0.046875 L 8.828125 0.109375 L 6.71875 0 Z M 5.625 0.15625 "/></g></g><g style="fill:#ffffff;fill-opacity:1;"><g transform="translate(92.220403, 302.310109)"><path style="stroke:none" d="M 18.140625 0.21875 L 17.0625 -0.046875 L 14.40625 -0.046875 L 12.78125 0.15625 L 10.609375 -0.046875 L 9.53125 0.046875 L 7.859375 0.109375 L 6.28125 -0.109375 L 5.25 0 L 4.21875 0 L 3.140625 -0.484375 L 2.59375 -1.953125 L 2.765625 -6.9375 L 3.359375 -7.90625 L 6.9375 -8.984375 L 7.53125 -10.609375 L 7.359375 -27.234375 L 6.875 -28.703125 L 5.84375 -29.359375 L 4.765625 -29.359375 L 3.578125 -29.953125 L 2.984375 -31.03125 L 3.09375 -32.0625 L 2.921875 -36.0625 L 3.46875 -37.375 L 4.546875 -37.90625 L 5.796875 -37.90625 L 6.828125 -37.75 L 11.265625 -37.75 L 12.34375 -37.96875 L 13.328125 -37.859375 L 19.875 -37.859375 L 20.84375 -37.265625 L 21.5 -36.234375 L 21.453125 -30.875 L 20.90625 -30 L 19.765625 -29.5625 L 18.6875 -29.40625 L 17.5 -28.921875 L 17.109375 -27.671875 L 16.890625 -22.203125 L 17.109375 -18.3125 L 17 -17.109375 L 17.0625 -11.15625 L 16.890625 -10.125 L 17.546875 -8.875 L 18.84375 -8.453125 L 19.984375 -8.453125 L 21.171875 -7.859375 L 21.828125 -6.828125 L 21.828125 -1.46875 L 21.28125 -0.4375 L 20.3125 0.109375 Z M 18.140625 0.21875 "/></g></g><g style="fill:#ffffff;fill-opacity:1;"><g transform="translate(124.81706, 302.310109)"><path style="stroke:none" d="M 31.953125 -0.921875 L 31.140625 -1.625 L 29.734375 -3.1875 L 21.34375 -11.53125 L 20.421875 -12.125 L 19.71875 -12.9375 L 15.875 -16.625 L 15.15625 -17.546875 L 14.453125 -17.8125 L 14.078125 -16.890625 L 13.96875 -15.8125 L 13.921875 -2.109375 L 13.375 -0.4375 L 12.296875 0.109375 L 11.15625 0.15625 L 9.046875 0 L 7.859375 0.109375 L 5.625 0 L 4.5 -0.375 L 4 -1.40625 L 3.90625 -5.953125 L 4 -6.984375 L 3.90625 -15.875 L 4.0625 -16.78125 L 3.953125 -19.015625 L 4 -19.921875 L 4 -36.34375 L 4.5 -37.375 L 5.734375 -37.90625 L 7.359375 -37.53125 L 8.609375 -36.875 L 9.421875 -36.234375 L 20.09375 -25.453125 L 21.609375 -24.265625 L 25.453125 -20.421875 L 26.265625 -20.03125 L 26.59375 -20.953125 L 26.703125 -30.65625 L 26.59375 -31.84375 L 26.75 -34.125 L 26.59375 -34.984375 L 26.640625 -36.125 L 27.234375 -37.265625 L 28.265625 -37.859375 L 34.984375 -37.90625 L 36.0625 -37.3125 L 36.609375 -36.234375 L 36.765625 -28.703125 L 36.609375 -27.40625 L 36.609375 -22.046875 L 36.765625 -21.125 L 36.65625 -1.359375 L 36.125 -0.265625 L 34.9375 0.109375 L 33.421875 -0.046875 Z M 31.953125 -0.921875 "/></g></g><g style="fill:#ffffff;fill-opacity:1;"><g transform="translate(173.656341, 302.310109)"><path style="stroke:none" d="M 18.84375 0.15625 L 17.765625 0.046875 L 16.6875 0.15625 L 15.4375 0.109375 L 14.40625 -0.109375 L 12.1875 0.046875 L 11.203125 0 L 10.015625 0.109375 L 6.125 0.046875 L 4.5 -0.65625 L 4.0625 -2.109375 L 3.953125 -3.296875 L 4.109375 -7.046875 L 3.953125 -8.125 L 4.0625 -9.15625 L 4.109375 -17.921875 L 3.953125 -18.90625 L 4 -23.34375 L 4.109375 -24.375 L 3.953125 -25.5 L 4.0625 -30.8125 L 3.90625 -32 L 4.0625 -34.234375 L 3.953125 -36.28125 L 4.546875 -37.421875 L 5.6875 -37.859375 L 6.765625 -37.796875 L 7.859375 -37.90625 L 8.828125 -37.796875 L 9.859375 -38.015625 L 10.9375 -37.859375 L 15.375 -37.96875 L 16.46875 -37.859375 L 17.390625 -37.90625 L 18.46875 -37.796875 L 19.65625 -37.90625 L 24.046875 -37.96875 L 25.015625 -37.75 L 26.15625 -37.75 L 27.234375 -37.3125 L 27.734375 -36.28125 L 27.84375 -33.03125 L 27.78125 -31.953125 L 27.84375 -30.875 L 27.296875 -29.890625 L 26.15625 -29.25 L 25.125 -29.1875 L 17.390625 -29.296875 L 16.359375 -29.078125 L 15.328125 -29.140625 L 14.140625 -28.703125 L 13.640625 -27.671875 L 13.640625 -26 L 14.078125 -24.3125 L 15.21875 -23.828125 L 18.359375 -23.9375 L 20.640625 -23.78125 L 21.765625 -23.890625 L 24.96875 -23.890625 L 26.21875 -23.171875 L 26.75 -21.65625 L 26.59375 -16.78125 L 26.21875 -15.703125 L 25.125 -15.265625 L 23.890625 -15.328125 L 22.796875 -15.21875 L 20.578125 -15.265625 L 18.515625 -15.15625 L 16.78125 -15.328125 L 15.15625 -15.265625 L 14.1875 -14.671875 L 13.703125 -13.546875 L 13.703125 -10.125 L 14.140625 -9.15625 L 15.265625 -8.609375 L 16.46875 -8.71875 L 17.5 -8.5625 L 18.6875 -8.609375 L 19.765625 -8.5 L 21.546875 -8.71875 L 24.3125 -8.671875 L 25.34375 -8.5 L 26.59375 -8.609375 L 27.734375 -8.125 L 28.328125 -7.046875 L 28.328125 -1.578125 L 27.734375 -0.4375 L 26.59375 0.046875 Z M 18.84375 0.15625 "/></g></g><g style="fill:#ffffff;fill-opacity:1;"><g transform="translate(212.695906, 302.310109)"><path style="stroke:none" d="M 4.0625 -2.21875 L 4.0625 -10.234375 L 3.953125 -11.3125 L 4 -15.703125 L 4.109375 -16.734375 L 4 -17.765625 L 4 -18.84375 L 3.953125 -20.03125 L 4.109375 -22.203125 L 4 -23.28125 L 3.953125 -35.6875 L 4.609375 -37.203125 L 5.578125 -37.75 L 8.765625 -38.015625 L 9.96875 -37.96875 L 11.046875 -37.75 L 12.125 -37.75 L 13.109375 -38.015625 L 14.1875 -38.015625 L 15.265625 -37.796875 L 18.515625 -37.796875 L 20.09375 -37.90625 L 21.828125 -37.859375 L 24.90625 -37.15625 L 26.96875 -36.453125 L 28.859375 -35.421875 L 31.953125 -32.171875 L 32.546875 -31.296875 L 32.984375 -30.375 L 33.953125 -27.296875 L 34.125 -26.21875 L 34.234375 -22.796875 L 33.515625 -19.65625 L 31.40625 -15.875 L 30.65625 -15.21875 L 29.890625 -14.40625 L 29.40625 -13.21875 L 29.46875 -11.921875 L 30.109375 -11.109375 L 31.84375 -8.28125 L 32.328125 -7.3125 L 34.171875 -4.546875 L 34.609375 -3.515625 L 35.25 -2.765625 L 35.84375 -1.578125 L 35.53125 -0.375 L 34.5 0.109375 L 32.703125 0.15625 L 31.6875 0.046875 L 27.40625 0.109375 L 25.5625 -0.375 L 24.375 -1.359375 L 23.78125 -2.28125 L 23.34375 -3.359375 L 22.75 -4.171875 L 21.71875 -6.125 L 20.578125 -7.75 L 20.140625 -8.71875 L 19.5 -9.796875 L 18.40625 -10.71875 L 15.265625 -11.15625 L 14.25 -10.5625 L 13.75 -9.484375 L 13.640625 -6.015625 L 13.8125 -4.875 L 13.703125 -3.90625 L 13.703125 -2.0625 L 13.21875 -0.484375 L 11.484375 0.046875 L 9.859375 0.046875 L 8.984375 0.15625 L 7.25 0 L 6.171875 0.15625 L 4.609375 -0.546875 Z M 15.265625 -19.828125 L 16.46875 -19.921875 L 19.0625 -19.828125 L 20.09375 -19.875 L 21.65625 -20.25 L 22.640625 -20.6875 L 23.234375 -21.171875 L 23.828125 -21.984375 L 24.3125 -23.078125 L 24.484375 -24.6875 L 24.265625 -26.109375 L 23.9375 -26.96875 L 22.578125 -28.65625 L 21.546875 -28.921875 L 20.140625 -29.03125 L 18.625 -29.359375 L 16.46875 -29.140625 L 15.375 -29.1875 L 14.25 -28.75 L 13.75 -27.734375 L 13.640625 -25.453125 L 13.75 -24.53125 L 13.75 -21.28125 L 14.1875 -20.421875 Z M 15.265625 -19.828125 "/></g></g><g style="fill:#ffffff;fill-opacity:1;"><g transform="translate(258.286667, 302.310109)"><path style="stroke:none" d="M 18.625 0.484375 L 17.59375 0.328125 L 16.40625 -0.109375 L 15.328125 -1.03125 L 14.84375 -1.84375 L 12.671875 -6.984375 L 12.40625 -8.0625 L 11.8125 -9.046875 L 10.890625 -10.890625 L 10.5 -12.015625 L 9.15625 -14.84375 L 8.828125 -15.921875 L 3.953125 -26.859375 L 3.578125 -28 L 2.984375 -28.8125 L 2.546875 -29.890625 L 2.28125 -30.921875 L 1.734375 -31.734375 L 0 -36.34375 L 0.4375 -37.421875 L 1.296875 -37.796875 L 3.359375 -37.796875 L 4.4375 -37.96875 L 7.53125 -37.859375 L 8.765625 -37.3125 L 9.6875 -36.390625 L 11.203125 -32.28125 L 12.625 -29.40625 L 15.328125 -22.359375 L 16.25 -20.53125 L 16.46875 -19.5 L 17.8125 -16.578125 L 18.40625 -16.46875 L 18.953125 -17.4375 L 20.03125 -20.46875 L 20.578125 -21.453125 L 20.796875 -22.421875 L 21.28125 -23.34375 L 21.609375 -24.484375 L 26.640625 -36.390625 L 27.5625 -37.3125 L 28.75 -38.015625 L 30.8125 -37.796875 L 31.890625 -37.859375 L 32.921875 -37.96875 L 33.90625 -37.796875 L 35.046875 -37.6875 L 36.015625 -37.46875 L 36.28125 -36.34375 L 35.90625 -34.875 L 34.875 -32.984375 L 34.609375 -31.953125 L 33.6875 -30 L 33.140625 -29.03125 L 28.4375 -17.875 L 27.453125 -16.140625 L 27.078125 -14.953125 L 24.96875 -10.015625 L 24.375 -9.046875 L 24.046875 -8.125 L 23.5 -6.984375 L 23.171875 -5.90625 L 22.15625 -4.171875 L 21.828125 -3.03125 L 21.125 -1.515625 L 19.921875 0.046875 Z M 18.625 0.484375 "/></g></g><g style="fill:#ffffff;fill-opacity:1;"><g transform="translate(302.794574, 302.310109)"><path style="stroke:none" d="M 17.59375 -1.46875 L 17.765625 -3.734375 L 17.59375 -5.796875 L 17.0625 -6.65625 L 16.140625 -7.203125 L 11.53125 -7.3125 L 10.453125 -7.15625 L 5.03125 -7.15625 L 3.90625 -7.3125 L 2.8125 -7.203125 L 1.578125 -7.796875 L 1.078125 -8.71875 L 1.359375 -11.3125 L 1.953125 -12.9375 L 2.59375 -13.859375 L 5.625 -19.546875 L 6.34375 -20.53125 L 9.421875 -26.15625 L 10.078125 -27.078125 L 10.5 -28.046875 L 11.203125 -28.921875 L 11.53125 -30 L 12.78125 -31.6875 L 14.296875 -34.65625 L 15.484375 -36.453125 L 16.46875 -37.375 L 18.359375 -37.859375 L 21.984375 -38.015625 L 23.078125 -37.90625 L 24.484375 -38.078125 L 26.21875 -37.3125 L 26.640625 -36.234375 L 26.53125 -35.09375 L 26.53125 -33.03125 L 26.8125 -31.953125 L 26.59375 -29.78125 L 26.703125 -28.65625 L 26.59375 -20.03125 L 26.703125 -19.0625 L 26.703125 -16.84375 L 27.125 -15.765625 L 28.15625 -15.109375 L 29.25 -15.109375 L 30.0625 -15.15625 L 31.078125 -14.515625 L 31.625 -12.9375 L 31.6875 -11.15625 L 31.515625 -8.9375 L 31.03125 -7.796875 L 30.109375 -7.203125 L 29.1875 -7.3125 L 28.21875 -7.203125 L 27.1875 -6.765625 L 26.640625 -5.203125 L 26.75 -3.6875 L 26.703125 -1.578125 L 26.046875 -0.484375 L 24.859375 0.046875 L 19.328125 0 L 18.25 -0.484375 Z M 14.78125 -15.21875 L 16.515625 -15.21875 L 17.546875 -15.59375 L 18.140625 -16.734375 L 17.875 -17.65625 L 18.25 -20.421875 L 18.140625 -22.046875 L 18.25 -23.234375 L 18.625 -24.265625 L 18.734375 -25.453125 L 18.359375 -25.71875 L 13.4375 -16.578125 L 13.265625 -15.59375 Z M 14.78125 -15.21875 "/></g></g><g clip-rule="nonzero" clip-path="url(#f159b92617)"><path style=" stroke:none;fill-rule:nonzero;fill:#ffffff;fill-opacity:1;" d="M 229.53125 71.734375 L 217.191406 62.03125 C 185.988281 37.496094 140.109375 47.824219 122.605469 83.449219 L 45.421875 240.433594 L 77.195312 240.433594 C 101.5 240.433594 123.675781 226.695312 134.324219 204.847656 L 185.222656 100.460938 C 188.925781 92.859375 194.351562 86.230469 201.152344 81.207031 C 207.988281 76.15625 217.355469 71.839844 229.167969 72.171875 C 226.433594 75.621094 224.015625 79.304688 221.988281 83.445312 L 144.792969 240.433594 L 176.570312 240.433594 C 200.875 240.433594 223.050781 226.695312 233.695312 204.847656 L 284.59375 100.460938 C 288.300781 92.859375 293.726562 86.230469 300.527344 81.207031 C 307.546875 76.019531 317.242188 71.59375 329.523438 72.214844 L 316.5625 62.03125 C 289.152344 40.46875 250.402344 45.925781 229.53125 71.734375 Z M 294.726562 173.796875 L 329.558594 240.65625 L 242.539062 240.632812 L 276.128906 173.925781 C 279.957031 166.3125 290.792969 166.238281 294.726562 173.796875 Z M 294.726562 173.796875 "/></g></g></svg>